<?xml version="1.0" encoding="UTF-8"?>
<svg xmlns="http://www.w3.org/2000/svg" viewBox="0 0 466.35 67.24">
  <defs>
    <style>
      .cls-1 {
        stroke: #f472b6;
        stroke-width: 20px;
      }

      .cls-1, .cls-2 {
        fill: none;
      }

      .cls-2 {
        stroke: #fff;
        stroke-width: 12px;
      }

      .cls-3 {
        fill: #059669;
        stroke-width: 0px;
      }
    </style>
  </defs>
  <g>
    <path class="cls-1" d="M10,53.44c.67-7.68.67-20.21.67-30.67,0-1.58,1.63-2.35,3.31-2.35s3.26.77,3.26,2.26v.38c2.69-2.21,5.18-2.93,7.87-2.93,7.78,0,13.44,5.81,13.44,15.17s-5.66,15.12-13.44,15.12c-2.78,0-5.66-.82-7.34-2.59.14,1.82.38,3.89.67,5.57.05.19.05.38.05.58,0,2.16-2.16,3.26-4.32,3.26s-4.18-1.06-4.18-3.41v-.38ZM31.75,34c0-4.27-2.74-7.58-7.25-7.58s-7.06,3.74-7.06,7.58c0,4.42,2.69,7.58,7.06,7.58s7.25-2.69,7.25-7.58Z"/>
    <path class="cls-1" d="M44.61,26.75h-1.44c-1.58,0-2.4-1.44-2.4-2.88s.82-2.88,2.4-2.88h1.44v-6c0-1.54,1.68-2.26,3.36-2.26s3.31.72,3.31,2.26v6h3.17c1.82,0,2.69,1.44,2.69,2.88s-.86,2.88-2.69,2.88h-3.17v12.77c0,.86.43,1.34,1.39,1.34.43,0,.96-.1,1.63-.29.24-.05.48-.1.72-.1,1.87,0,3.02,2.4,3.02,4.7,0,1.58-.58,3.22-1.87,3.79-1.78.82-3.5,1.15-5.09,1.15-3.7,0-6.48-2.11-6.48-5.86v-17.52Z"/>
    <path class="cls-1" d="M60.78,46.24c.82-8.11,1.06-13.01,1.06-23.47,0-1.58,1.63-2.35,3.26-2.35s3.31.77,3.31,2.35v.72c1.34-2.06,4.08-3.31,6.96-3.31.58,0,1.15.05,1.73.14,1.63.29,2.3,1.58,2.3,2.88,0,1.58-1.06,3.26-2.74,3.26-.19,0-.34,0-.53-.05-.29-.05-.62-.1-.91-.1-2.74,0-5.95,2.21-6.29,6.14-.05.72-.1,1.49-.1,2.26,0,3.22.48,7.25,1.34,11.52.05.24.05.48.05.67,0,2.16-2.26,3.17-4.61,3.17s-4.85-1.06-4.85-3.46v-.38Z"/>
    <path class="cls-1" d="M94.29,41.73c3.26,0,4.7-1.2,4.7-2.4,0-.91-.77-1.78-2.16-2.26-2.83-.91-6.67-1.3-9.7-2.11-3.98-1.06-5.47-3.17-5.47-6.1,0-.38.05-.82.1-1.25.53-4.42,4.75-7.49,11.33-7.49s11.09,2.98,11.9,7.92v.29c0,1.25-1.58,1.97-3.12,1.97-1.39,0-2.74-.53-2.98-1.63-.38-1.58-2.35-2.83-5.9-2.83-3.26,0-4.42.77-4.61,2.02v.24c0,.77.62,1.3,1.78,1.58,2.26.58,6.34,1.2,8.88,1.82,4.66,1.15,6.82,4.18,6.82,9.17,0,.29-.05.62-.05.96-.29,5.42-3.89,8.78-12.39,8.78s-12.67-4.32-12.67-11.47c0-1.87,1.63-2.78,3.22-2.78,1.25,0,2.45.58,2.69,1.78.48,2.26,2.64,3.6,6.96,3.79h.67Z"/>
    <path class="cls-1" d="M111.81,26.75h-1.44c-1.58,0-2.4-1.44-2.4-2.88s.82-2.88,2.4-2.88h1.44v-6c0-1.54,1.68-2.26,3.36-2.26s3.31.72,3.31,2.26v6h3.17c1.82,0,2.69,1.44,2.69,2.88s-.86,2.88-2.69,2.88h-3.17v12.77c0,.86.43,1.34,1.39,1.34.43,0,.96-.1,1.63-.29.24-.05.48-.1.72-.1,1.87,0,3.02,2.4,3.02,4.7,0,1.58-.58,3.22-1.87,3.79-1.78.82-3.5,1.15-5.09,1.15-3.7,0-6.48-2.11-6.48-5.86v-17.52Z"/>
    <path class="cls-1" d="M147.47,18.16c0,9.46.24,15.65,1.63,28.03,0,.14.05.29.05.43,0,2.4-2.59,3.46-5.18,3.46s-5.18-1.06-5.18-3.41c0-.14.05-.34.05-.48,1.34-13.44,1.73-17.81,1.78-25.92-1.01.53-2.16,1.01-2.98,1.34-.53.19-1.01.29-1.44.29-2.02,0-3.26-1.73-3.26-3.41,0-1.1.58-2.16,1.92-2.69,1.82-.67,4.37-1.97,5.95-3.31.72-.58,1.63-.86,2.64-.86,1.97,0,4.03,1.2,4.03,3.26v3.26Z"/>
    <path class="cls-1" d="M161.87,30.93c0-11.62,5.33-19.83,14.54-19.83s14.55,8.21,14.55,19.83-5.28,19.73-14.55,19.73-14.54-8.11-14.54-19.73ZM184.1,29.87c0-6.48-1.92-12.29-7.68-12.29s-7.68,5.81-7.68,12.29,2.35,11.47,7.68,11.47,7.68-4.99,7.68-11.47Z"/>
    <path class="cls-1" d="M200.7,49.65c-3.31,0-4.94-3.07-4.94-6.34,0-1.82.53-3.7,1.49-5.14,5.47-8.16,19.87-9.7,19.87-16.03,0-2.4-2.26-4.8-6.53-4.8-3.98,0-6.77,2.45-7.54,6.1-.34,1.58-1.63,2.26-3.02,2.26-1.78,0-3.6-1.1-3.6-3.07,0-.19,0-.38.05-.58,1.06-5.9,6.1-10.94,14.02-10.94s13.39,5.57,13.39,11.04c0,11.52-14.5,11.81-19.54,17.95-.1.14-.14.29-.14.34,0,.14.1.19.34.19h17.09c1.92,0,2.88,2.26,2.88,4.51s-.96,4.51-2.88,4.51h-20.93Z"/>
    <path class="cls-1" d="M266.66,42.31c2.45,0,3.55,2.21,3.55,4.56,0,2.5-1.2,5.04-3.36,5.23-4.13.34-7.97.48-11.47.48-15.12,0-24.34-3.31-24.34-13.35,0-7.87,4.22-12.34,12.91-15.31-.24-3.6-.67-7.01-1.1-10.66,0-.14-.05-.24-.05-.34,0-1.73,1.87-2.69,3.74-2.69,1.73,0,3.41.86,3.55,2.69.19,3.12.38,6,.53,9.17,7.3-1.58,12.67-1.92,13.68-1.92,2.3,0,3.5,1.63,3.5,3.26,0,1.54-1.01,3.02-3.07,3.17-21.17,1.58-26.69,6.43-26.69,11.09,0,4.18,4.27,5.38,12.39,5.38,4.27,0,9.6-.34,15.94-.77h.29ZM268.67,20.46c-.67,0-1.3-.24-1.87-.86-1.34-1.39-2.74-2.74-3.84-3.6-.58-.43-.82-.91-.82-1.44,0-.96,1.01-1.92,2.21-1.92.62,0,1.82.19,6,4.51.43.43.58.86.58,1.3,0,1.1-1.06,2.02-2.26,2.02ZM272.99,17.01c-.53,0-1.1-.19-1.58-.72-1.1-1.15-2.54-2.4-3.6-3.17-.58-.43-.82-.91-.82-1.39,0-.91.96-1.73,2.06-1.73.62,0,1.68.24,5.42,3.84.43.38.58.86.58,1.25,0,1.01-.96,1.92-2.06,1.92Z"/>
    <path class="cls-1" d="M289.41,52.15c-2.5,0-3.74-2.54-3.74-4.9,0-1.87.82-3.6,2.45-3.7,13.54-1.06,18.53-4.8,18.53-9.7,0-3.5-3.84-5.66-8.98-5.66-6.29,0-10.8,1.44-16.27,3.26-.43.14-.86.19-1.2.19-1.97,0-3.17-1.68-3.17-3.26,0-1.1.58-2.21,1.92-2.59,5.95-1.73,12.19-3.07,18.91-3.07,8.59,0,14.88,4.46,14.88,11.52,0,10.13-6.24,16.66-23.04,17.91h-.29Z"/>
    <path class="cls-1" d="M356.08,42.16c2.26,0,3.36,2.4,3.36,4.8s-1.1,4.85-3.17,4.99c-4.03.34-7.82.48-11.33.48-15.03,0-24.48-3.31-24.48-13.35,0-7.87,4.22-12.34,12.91-15.31-.24-3.6-.67-7.01-1.1-10.66,0-.14-.05-.24-.05-.34,0-1.73,1.87-2.69,3.74-2.69,1.73,0,3.41.86,3.55,2.69.19,3.12.38,6,.53,9.17,7.15-1.54,15.07-2.06,15.12-2.06,2.3,0,3.5,1.63,3.5,3.26,0,1.49-1.01,2.98-3.07,3.12-21.55,1.49-28.13,6.62-28.13,11.28,0,4.18,4.32,5.52,12.43,5.52,4.27,0,9.6-.38,15.89-.91h.29Z"/>
    <path class="cls-1" d="M387.14,51.33c-13.68,0-19.39-4.22-19.39-11.52,0-2.98,2.45-7.63,5.18-10.13.62-.58,1.39-.82,2.11-.82,1.73,0,3.36,1.39,3.36,2.74,0,.48-.14.91-.58,1.34-1.3,1.3-2.26,3.02-2.26,4.61,0,2.4,1.82,3.84,11.57,3.84,4.51,0,10.71-.62,15.22-1.54.19-.05.38-.05.58-.05,2.21,0,3.5,2.59,3.5,5.14,0,2.21-.96,4.42-3.17,4.85-4.61.91-10.9,1.54-16.13,1.54ZM400.63,12.88c2.06,0,3.22,1.68,3.22,3.36,0,1.15-.53,2.26-1.73,2.74-4.27,1.73-8.64,3.7-12.24,5.81-.72.43-1.49.62-2.16.62-1.92,0-3.46-1.54-3.46-2.93,0-.86.34-1.49,4.51-3.36-1.44.24-3.17.29-3.89.29-3.12,0-8.78,0-12.48-.29-1.68-.14-2.64-1.78-2.64-3.31,0-1.44.86-2.83,2.78-2.83h.34c3.31.29,8.16.38,11.86.38,5.18,0,11.81-.14,15.51-.48h.38Z"/>
    <path class="cls-1" d="M437.83,15.09c1.78,0,2.74,1.44,2.74,2.83,0,1.3-.82,2.59-2.59,2.78-2.3.19-4.56.38-6.77.53,0,2.3-.1,4.56-.24,6.91.34.96.58,2.16.58,3.5,0,3.74-.96,6.1-2.16,8.83-.19.43-.29.82-.29,1.1,0,1.25,1.78,1.54,7.54,1.54,7.44,0,9.02-1.06,9.02-5.14,0-1.87-.43-4.37-.82-5.57-.1-.29-.14-.53-.14-.82,0-1.63,1.73-2.78,3.41-2.78,1.3,0,2.59.67,3.17,2.21.53,1.39,1.58,6.72,1.58,9.46,0,8.59-3.5,12.53-16.23,12.53-10.27,0-15.03-1.2-15.03-6.91,0-.58.05-1.15.14-1.82,0,0-.29.1-1.1.1-4.42,0-7.49-2.98-7.49-8.02,0-6.58,4.56-12.19,10.08-12.19.67,0,1.3,0,1.92.1,0-1.06-.05-1.92-.1-2.93-2.69,0-5.28-.1-7.87-.34-1.54-.1-2.35-1.49-2.35-2.88s.77-2.69,2.35-2.69h.24c2.35.14,4.85.24,7.34.29-.1-1.15-.14-2.26-.24-3.22v-.24c0-1.39,1.68-2.21,3.31-2.21,1.54,0,3.07.72,3.12,2.26.1,1.06.14,2.16.19,3.26,2.11-.05,4.22-.24,6.34-.48h.34ZM425.54,32.32c0-1.82-.91-2.69-2.3-2.69-2.3,0-4.37,2.83-4.37,5.71,0,1.58.67,2.88,2.11,2.88,4.22,0,4.56-5.18,4.56-5.9ZM451.03,24.06c-2.26-2.26-5.76-4.9-8.02-6.38-1.01-.67-1.44-1.54-1.44-2.3,0-1.49,1.39-2.88,3.12-2.88.62,0,1.25.19,1.92.58,2.5,1.49,6.29,3.98,8.83,6.38.62.58.91,1.34.91,2.06,0,1.73-1.54,3.5-3.26,3.5-.67,0-1.39-.29-2.06-.96Z"/>
  </g>
  <g>
    <path class="cls-2" d="M10,53.44c.67-7.68.67-20.21.67-30.67,0-1.58,1.63-2.35,3.31-2.35s3.26.77,3.26,2.26v.38c2.69-2.21,5.18-2.93,7.87-2.93,7.78,0,13.44,5.81,13.44,15.17s-5.66,15.12-13.44,15.12c-2.78,0-5.66-.82-7.34-2.59.14,1.82.38,3.89.67,5.57.05.19.05.38.05.58,0,2.16-2.16,3.26-4.32,3.26s-4.18-1.06-4.18-3.41v-.38ZM31.75,34c0-4.27-2.74-7.58-7.25-7.58s-7.06,3.74-7.06,7.58c0,4.42,2.69,7.58,7.06,7.58s7.25-2.69,7.25-7.58Z"/>
    <path class="cls-2" d="M44.61,26.75h-1.44c-1.58,0-2.4-1.44-2.4-2.88s.82-2.88,2.4-2.88h1.44v-6c0-1.54,1.68-2.26,3.36-2.26s3.31.72,3.31,2.26v6h3.17c1.82,0,2.69,1.44,2.69,2.88s-.86,2.88-2.69,2.88h-3.17v12.77c0,.86.43,1.34,1.39,1.34.43,0,.96-.1,1.63-.29.24-.05.48-.1.72-.1,1.87,0,3.02,2.4,3.02,4.7,0,1.58-.58,3.22-1.87,3.79-1.78.82-3.5,1.15-5.09,1.15-3.7,0-6.48-2.11-6.48-5.86v-17.52Z"/>
    <path class="cls-2" d="M60.78,46.24c.82-8.11,1.06-13.01,1.06-23.47,0-1.58,1.63-2.35,3.26-2.35s3.31.77,3.31,2.35v.72c1.34-2.06,4.08-3.31,6.96-3.31.58,0,1.15.05,1.73.14,1.63.29,2.3,1.58,2.3,2.88,0,1.58-1.06,3.26-2.74,3.26-.19,0-.34,0-.53-.05-.29-.05-.62-.1-.91-.1-2.74,0-5.95,2.21-6.29,6.14-.05.72-.1,1.49-.1,2.26,0,3.22.48,7.25,1.34,11.52.05.24.05.48.05.67,0,2.16-2.26,3.17-4.61,3.17s-4.85-1.06-4.85-3.46v-.38Z"/>
    <path class="cls-2" d="M94.29,41.73c3.26,0,4.7-1.2,4.7-2.4,0-.91-.77-1.78-2.16-2.26-2.83-.91-6.67-1.3-9.7-2.11-3.98-1.06-5.47-3.17-5.47-6.1,0-.38.05-.82.1-1.25.53-4.42,4.75-7.49,11.33-7.49s11.09,2.98,11.9,7.92v.29c0,1.25-1.58,1.97-3.12,1.97-1.39,0-2.74-.53-2.98-1.63-.38-1.58-2.35-2.83-5.9-2.83-3.26,0-4.42.77-4.61,2.02v.24c0,.77.62,1.3,1.78,1.58,2.26.58,6.34,1.2,8.88,1.82,4.66,1.15,6.82,4.18,6.82,9.17,0,.29-.05.62-.05.96-.29,5.42-3.89,8.78-12.39,8.78s-12.67-4.32-12.67-11.47c0-1.87,1.63-2.78,3.22-2.78,1.25,0,2.45.58,2.69,1.78.48,2.26,2.64,3.6,6.96,3.79h.67Z"/>
    <path class="cls-2" d="M111.81,26.75h-1.44c-1.58,0-2.4-1.44-2.4-2.88s.82-2.88,2.4-2.88h1.44v-6c0-1.54,1.68-2.26,3.36-2.26s3.31.72,3.31,2.26v6h3.17c1.82,0,2.69,1.44,2.69,2.88s-.86,2.88-2.69,2.88h-3.17v12.77c0,.86.43,1.34,1.39,1.34.43,0,.96-.1,1.63-.29.24-.05.48-.1.72-.1,1.87,0,3.02,2.4,3.02,4.7,0,1.58-.58,3.22-1.87,3.79-1.78.82-3.5,1.15-5.09,1.15-3.7,0-6.48-2.11-6.48-5.86v-17.52Z"/>
    <path class="cls-2" d="M147.47,18.16c0,9.46.24,15.65,1.63,28.03,0,.14.05.29.05.43,0,2.4-2.59,3.46-5.18,3.46s-5.18-1.06-5.18-3.41c0-.14.05-.34.05-.48,1.34-13.44,1.73-17.81,1.78-25.92-1.01.53-2.16,1.01-2.98,1.34-.53.19-1.01.29-1.44.29-2.02,0-3.26-1.73-3.26-3.41,0-1.1.58-2.16,1.92-2.69,1.82-.67,4.37-1.97,5.95-3.31.72-.58,1.63-.86,2.64-.86,1.97,0,4.03,1.2,4.03,3.26v3.26Z"/>
    <path class="cls-2" d="M161.87,30.93c0-11.62,5.33-19.83,14.54-19.83s14.55,8.21,14.55,19.83-5.28,19.73-14.55,19.73-14.54-8.11-14.54-19.73ZM184.1,29.87c0-6.48-1.92-12.29-7.68-12.29s-7.68,5.81-7.68,12.29,2.35,11.47,7.68,11.47,7.68-4.99,7.68-11.47Z"/>
    <path class="cls-2" d="M200.7,49.65c-3.31,0-4.94-3.07-4.94-6.34,0-1.82.53-3.7,1.49-5.14,5.47-8.16,19.87-9.7,19.87-16.03,0-2.4-2.26-4.8-6.53-4.8-3.98,0-6.77,2.45-7.54,6.1-.34,1.58-1.63,2.26-3.02,2.26-1.78,0-3.6-1.1-3.6-3.07,0-.19,0-.38.05-.58,1.06-5.9,6.1-10.94,14.02-10.94s13.39,5.57,13.39,11.04c0,11.52-14.5,11.81-19.54,17.95-.1.14-.14.29-.14.34,0,.14.1.19.34.19h17.09c1.92,0,2.88,2.26,2.88,4.51s-.96,4.51-2.88,4.51h-20.93Z"/>
    <path class="cls-2" d="M266.66,42.31c2.45,0,3.55,2.21,3.55,4.56,0,2.5-1.2,5.04-3.36,5.23-4.13.34-7.97.48-11.47.48-15.12,0-24.34-3.31-24.34-13.35,0-7.87,4.22-12.34,12.91-15.31-.24-3.6-.67-7.01-1.1-10.66,0-.14-.05-.24-.05-.34,0-1.73,1.87-2.69,3.74-2.69,1.73,0,3.41.86,3.55,2.69.19,3.12.38,6,.53,9.17,7.3-1.58,12.67-1.92,13.68-1.92,2.3,0,3.5,1.63,3.5,3.26,0,1.54-1.01,3.02-3.07,3.17-21.17,1.58-26.69,6.43-26.69,11.09,0,4.18,4.27,5.38,12.39,5.38,4.27,0,9.6-.34,15.94-.77h.29ZM268.67,20.46c-.67,0-1.3-.24-1.87-.86-1.34-1.39-2.74-2.74-3.84-3.6-.58-.43-.82-.91-.82-1.44,0-.96,1.01-1.92,2.21-1.92.62,0,1.82.19,6,4.51.43.43.58.86.58,1.3,0,1.1-1.06,2.02-2.26,2.02ZM272.99,17.01c-.53,0-1.1-.19-1.58-.72-1.1-1.15-2.54-2.4-3.6-3.17-.58-.43-.82-.91-.82-1.39,0-.91.96-1.73,2.06-1.73.62,0,1.68.24,5.42,3.84.43.38.58.86.58,1.25,0,1.01-.96,1.92-2.06,1.92Z"/>
    <path class="cls-2" d="M289.41,52.15c-2.5,0-3.74-2.54-3.74-4.9,0-1.87.82-3.6,2.45-3.7,13.54-1.06,18.53-4.8,18.53-9.7,0-3.5-3.84-5.66-8.98-5.66-6.29,0-10.8,1.44-16.27,3.26-.43.14-.86.19-1.2.19-1.97,0-3.17-1.68-3.17-3.26,0-1.1.58-2.21,1.92-2.59,5.95-1.73,12.19-3.07,18.91-3.07,8.59,0,14.88,4.46,14.88,11.52,0,10.13-6.24,16.66-23.04,17.91h-.29Z"/>
    <path class="cls-2" d="M356.08,42.16c2.26,0,3.36,2.4,3.36,4.8s-1.1,4.85-3.17,4.99c-4.03.34-7.82.48-11.33.48-15.03,0-24.48-3.31-24.48-13.35,0-7.87,4.22-12.34,12.91-15.31-.24-3.6-.67-7.01-1.1-10.66,0-.14-.05-.24-.05-.34,0-1.73,1.87-2.69,3.74-2.69,1.73,0,3.41.86,3.55,2.69.19,3.12.38,6,.53,9.17,7.15-1.54,15.07-2.06,15.12-2.06,2.3,0,3.5,1.63,3.5,3.26,0,1.49-1.01,2.98-3.07,3.12-21.55,1.49-28.13,6.62-28.13,11.28,0,4.18,4.32,5.52,12.43,5.52,4.27,0,9.6-.38,15.89-.91h.29Z"/>
    <path class="cls-2" d="M387.14,51.33c-13.68,0-19.39-4.22-19.39-11.52,0-2.98,2.45-7.63,5.18-10.13.62-.58,1.39-.82,2.11-.82,1.73,0,3.36,1.39,3.36,2.74,0,.48-.14.91-.58,1.34-1.3,1.3-2.26,3.02-2.26,4.61,0,2.4,1.82,3.84,11.57,3.84,4.51,0,10.71-.62,15.22-1.54.19-.05.38-.05.58-.05,2.21,0,3.5,2.59,3.5,5.14,0,2.21-.96,4.42-3.17,4.85-4.61.91-10.9,1.54-16.13,1.54ZM400.63,12.88c2.06,0,3.22,1.68,3.22,3.36,0,1.15-.53,2.26-1.73,2.74-4.27,1.73-8.64,3.7-12.24,5.81-.72.43-1.49.62-2.16.62-1.92,0-3.46-1.54-3.46-2.93,0-.86.34-1.49,4.51-3.36-1.44.24-3.17.29-3.89.29-3.12,0-8.78,0-12.48-.29-1.68-.14-2.64-1.78-2.64-3.31,0-1.44.86-2.83,2.78-2.83h.34c3.31.29,8.16.38,11.86.38,5.18,0,11.81-.14,15.51-.48h.38Z"/>
    <path class="cls-2" d="M437.83,15.09c1.78,0,2.74,1.44,2.74,2.83,0,1.3-.82,2.59-2.59,2.78-2.3.19-4.56.38-6.77.53,0,2.3-.1,4.56-.24,6.91.34.96.58,2.16.58,3.5,0,3.74-.96,6.1-2.16,8.83-.19.43-.29.82-.29,1.1,0,1.25,1.78,1.54,7.54,1.54,7.44,0,9.02-1.06,9.02-5.14,0-1.87-.43-4.37-.82-5.57-.1-.29-.14-.53-.14-.82,0-1.63,1.73-2.78,3.41-2.78,1.3,0,2.59.67,3.17,2.21.53,1.39,1.58,6.72,1.58,9.46,0,8.59-3.5,12.53-16.23,12.53-10.27,0-15.03-1.2-15.03-6.91,0-.58.05-1.15.14-1.82,0,0-.29.1-1.1.1-4.42,0-7.49-2.98-7.49-8.02,0-6.58,4.56-12.19,10.08-12.19.67,0,1.3,0,1.92.1,0-1.06-.05-1.92-.1-2.93-2.69,0-5.28-.1-7.87-.34-1.54-.1-2.35-1.49-2.35-2.88s.77-2.69,2.35-2.69h.24c2.35.14,4.85.24,7.34.29-.1-1.15-.14-2.26-.24-3.22v-.24c0-1.39,1.68-2.21,3.31-2.21,1.54,0,3.07.72,3.12,2.26.1,1.06.14,2.16.19,3.26,2.11-.05,4.22-.24,6.34-.48h.34ZM425.54,32.32c0-1.82-.91-2.69-2.3-2.69-2.3,0-4.37,2.83-4.37,5.71,0,1.58.67,2.88,2.11,2.88,4.22,0,4.56-5.18,4.56-5.9ZM451.03,24.06c-2.26-2.26-5.76-4.9-8.02-6.38-1.01-.67-1.44-1.54-1.44-2.3,0-1.49,1.39-2.88,3.12-2.88.62,0,1.25.19,1.92.58,2.5,1.49,6.29,3.98,8.83,6.38.62.58.91,1.34.91,2.06,0,1.73-1.54,3.5-3.26,3.5-.67,0-1.39-.29-2.06-.96Z"/>
  </g>
  <g>
    <path class="cls-3" d="M10,53.44c.67-7.68.67-20.21.67-30.67,0-1.58,1.63-2.35,3.31-2.35s3.26.77,3.26,2.26v.38c2.69-2.21,5.18-2.93,7.87-2.93,7.78,0,13.44,5.81,13.44,15.17s-5.66,15.12-13.44,15.12c-2.78,0-5.66-.82-7.34-2.59.14,1.82.38,3.89.67,5.57.05.19.05.38.05.58,0,2.16-2.16,3.26-4.32,3.26s-4.18-1.06-4.18-3.41v-.38ZM31.75,34c0-4.27-2.74-7.58-7.25-7.58s-7.06,3.74-7.06,7.58c0,4.42,2.69,7.58,7.06,7.58s7.25-2.69,7.25-7.58Z"/>
    <path class="cls-3" d="M44.61,26.75h-1.44c-1.58,0-2.4-1.44-2.4-2.88s.82-2.88,2.4-2.88h1.44v-6c0-1.54,1.68-2.26,3.36-2.26s3.31.72,3.31,2.26v6h3.17c1.82,0,2.69,1.44,2.69,2.88s-.86,2.88-2.69,2.88h-3.17v12.77c0,.86.43,1.34,1.39,1.34.43,0,.96-.1,1.63-.29.24-.05.48-.1.72-.1,1.87,0,3.02,2.4,3.02,4.7,0,1.58-.58,3.22-1.87,3.79-1.78.82-3.5,1.15-5.09,1.15-3.7,0-6.48-2.11-6.48-5.86v-17.52Z"/>
    <path class="cls-3" d="M60.78,46.24c.82-8.11,1.06-13.01,1.06-23.47,0-1.58,1.63-2.35,3.26-2.35s3.31.77,3.31,2.35v.72c1.34-2.06,4.08-3.31,6.96-3.31.58,0,1.15.05,1.73.14,1.63.29,2.3,1.58,2.3,2.88,0,1.58-1.06,3.26-2.74,3.26-.19,0-.34,0-.53-.05-.29-.05-.62-.1-.91-.1-2.74,0-5.95,2.21-6.29,6.14-.05.72-.1,1.49-.1,2.26,0,3.22.48,7.25,1.34,11.52.05.24.05.48.05.67,0,2.16-2.26,3.17-4.61,3.17s-4.85-1.06-4.85-3.46v-.38Z"/>
    <path class="cls-3" d="M94.29,41.73c3.26,0,4.7-1.2,4.7-2.4,0-.91-.77-1.78-2.16-2.26-2.83-.91-6.67-1.3-9.7-2.11-3.98-1.06-5.47-3.17-5.47-6.1,0-.38.05-.82.1-1.25.53-4.42,4.75-7.49,11.33-7.49s11.09,2.98,11.9,7.92v.29c0,1.25-1.58,1.97-3.12,1.97-1.39,0-2.74-.53-2.98-1.63-.38-1.58-2.35-2.83-5.9-2.83-3.26,0-4.42.77-4.61,2.02v.24c0,.77.62,1.3,1.78,1.58,2.26.58,6.34,1.2,8.88,1.82,4.66,1.15,6.82,4.18,6.82,9.17,0,.29-.05.62-.05.96-.29,5.42-3.89,8.78-12.39,8.78s-12.67-4.32-12.67-11.47c0-1.87,1.63-2.78,3.22-2.78,1.25,0,2.45.58,2.69,1.78.48,2.26,2.64,3.6,6.96,3.79h.67Z"/>
    <path class="cls-3" d="M111.81,26.75h-1.44c-1.58,0-2.4-1.44-2.4-2.88s.82-2.88,2.4-2.88h1.44v-6c0-1.54,1.68-2.26,3.36-2.26s3.31.72,3.31,2.26v6h3.17c1.82,0,2.69,1.44,2.69,2.88s-.86,2.88-2.69,2.88h-3.17v12.77c0,.86.43,1.34,1.39,1.34.43,0,.96-.1,1.63-.29.24-.05.48-.1.72-.1,1.87,0,3.02,2.4,3.02,4.7,0,1.58-.58,3.22-1.87,3.79-1.78.82-3.5,1.15-5.09,1.15-3.7,0-6.48-2.11-6.48-5.86v-17.52Z"/>
    <path class="cls-3" d="M147.47,18.16c0,9.46.24,15.65,1.63,28.03,0,.14.05.29.05.43,0,2.4-2.59,3.46-5.18,3.46s-5.18-1.06-5.18-3.41c0-.14.05-.34.05-.48,1.34-13.44,1.73-17.81,1.78-25.92-1.01.53-2.16,1.01-2.98,1.34-.53.19-1.01.29-1.44.29-2.02,0-3.26-1.73-3.26-3.41,0-1.1.58-2.16,1.92-2.69,1.82-.67,4.37-1.97,5.95-3.31.72-.58,1.63-.86,2.64-.86,1.97,0,4.03,1.2,4.03,3.26v3.26Z"/>
    <path class="cls-3" d="M161.87,30.93c0-11.62,5.33-19.83,14.54-19.83s14.55,8.21,14.55,19.83-5.28,19.73-14.55,19.73-14.54-8.11-14.54-19.73ZM184.1,29.87c0-6.48-1.92-12.29-7.68-12.29s-7.68,5.81-7.68,12.29,2.35,11.47,7.68,11.47,7.68-4.99,7.68-11.47Z"/>
    <path class="cls-3" d="M200.7,49.65c-3.31,0-4.94-3.07-4.94-6.34,0-1.82.53-3.7,1.49-5.14,5.47-8.16,19.87-9.7,19.87-16.03,0-2.4-2.26-4.8-6.53-4.8-3.98,0-6.77,2.45-7.54,6.1-.34,1.58-1.63,2.26-3.02,2.26-1.78,0-3.6-1.1-3.6-3.07,0-.19,0-.38.05-.58,1.06-5.9,6.1-10.94,14.02-10.94s13.39,5.57,13.39,11.04c0,11.52-14.5,11.81-19.54,17.95-.1.14-.14.29-.14.34,0,.14.1.19.34.19h17.09c1.92,0,2.88,2.26,2.88,4.51s-.96,4.51-2.88,4.51h-20.93Z"/>
    <path class="cls-3" d="M266.66,42.31c2.45,0,3.55,2.21,3.55,4.56,0,2.5-1.2,5.04-3.36,5.23-4.13.34-7.97.48-11.47.48-15.12,0-24.34-3.31-24.34-13.35,0-7.87,4.22-12.34,12.91-15.31-.24-3.6-.67-7.01-1.1-10.66,0-.14-.05-.24-.05-.34,0-1.73,1.87-2.69,3.74-2.69,1.73,0,3.41.86,3.55,2.69.19,3.12.38,6,.53,9.17,7.3-1.58,12.67-1.92,13.68-1.92,2.3,0,3.5,1.63,3.5,3.26,0,1.54-1.01,3.02-3.07,3.17-21.17,1.58-26.69,6.43-26.69,11.09,0,4.18,4.27,5.38,12.39,5.38,4.27,0,9.6-.34,15.94-.77h.29ZM268.67,20.46c-.67,0-1.3-.24-1.87-.86-1.34-1.39-2.74-2.74-3.84-3.6-.58-.43-.82-.91-.82-1.44,0-.96,1.01-1.92,2.21-1.92.62,0,1.82.19,6,4.51.43.43.58.86.58,1.3,0,1.1-1.06,2.02-2.26,2.02ZM272.99,17.01c-.53,0-1.1-.19-1.58-.72-1.1-1.15-2.54-2.4-3.6-3.17-.58-.43-.82-.91-.82-1.39,0-.91.96-1.73,2.06-1.73.62,0,1.68.24,5.42,3.84.43.38.58.86.58,1.25,0,1.01-.96,1.92-2.06,1.92Z"/>
    <path class="cls-3" d="M289.41,52.15c-2.5,0-3.74-2.54-3.74-4.9,0-1.87.82-3.6,2.45-3.7,13.54-1.06,18.53-4.8,18.53-9.7,0-3.5-3.84-5.66-8.98-5.66-6.29,0-10.8,1.44-16.27,3.26-.43.14-.86.19-1.2.19-1.97,0-3.17-1.68-3.17-3.26,0-1.1.58-2.21,1.92-2.59,5.95-1.73,12.19-3.07,18.91-3.07,8.59,0,14.88,4.46,14.88,11.52,0,10.13-6.24,16.66-23.04,17.91h-.29Z"/>
    <path class="cls-3" d="M356.08,42.16c2.26,0,3.36,2.4,3.36,4.8s-1.1,4.85-3.17,4.99c-4.03.34-7.82.48-11.33.48-15.03,0-24.48-3.31-24.48-13.35,0-7.87,4.22-12.34,12.91-15.31-.24-3.6-.67-7.01-1.1-10.66,0-.14-.05-.24-.05-.34,0-1.73,1.87-2.69,3.74-2.69,1.73,0,3.41.86,3.55,2.69.19,3.12.38,6,.53,9.17,7.15-1.54,15.07-2.06,15.12-2.06,2.3,0,3.5,1.63,3.5,3.26,0,1.49-1.01,2.98-3.07,3.12-21.55,1.49-28.13,6.62-28.13,11.28,0,4.18,4.32,5.52,12.43,5.52,4.27,0,9.6-.38,15.89-.91h.29Z"/>
    <path class="cls-3" d="M387.14,51.33c-13.68,0-19.39-4.22-19.39-11.52,0-2.98,2.45-7.63,5.18-10.13.62-.58,1.39-.82,2.11-.82,1.73,0,3.36,1.39,3.36,2.74,0,.48-.14.91-.58,1.34-1.3,1.3-2.26,3.02-2.26,4.61,0,2.4,1.82,3.84,11.57,3.84,4.51,0,10.71-.62,15.22-1.54.19-.05.38-.05.58-.05,2.21,0,3.5,2.59,3.5,5.14,0,2.21-.96,4.42-3.17,4.85-4.61.91-10.9,1.54-16.13,1.54ZM400.63,12.88c2.06,0,3.22,1.68,3.22,3.36,0,1.15-.53,2.26-1.73,2.74-4.27,1.73-8.64,3.7-12.24,5.81-.72.43-1.49.62-2.16.62-1.92,0-3.46-1.54-3.46-2.93,0-.86.34-1.49,4.51-3.36-1.44.24-3.17.29-3.89.29-3.12,0-8.78,0-12.48-.29-1.68-.14-2.64-1.78-2.64-3.31,0-1.44.86-2.83,2.78-2.83h.34c3.31.29,8.16.38,11.86.38,5.18,0,11.81-.14,15.51-.48h.38Z"/>
    <path class="cls-3" d="M437.83,15.09c1.78,0,2.74,1.44,2.74,2.83,0,1.3-.82,2.59-2.59,2.78-2.3.19-4.56.38-6.77.53,0,2.3-.1,4.56-.24,6.91.34.96.58,2.16.58,3.5,0,3.74-.96,6.1-2.16,8.83-.19.43-.29.82-.29,1.1,0,1.25,1.78,1.54,7.54,1.54,7.44,0,9.02-1.06,9.02-5.14,0-1.87-.43-4.37-.82-5.57-.1-.29-.14-.53-.14-.82,0-1.63,1.73-2.78,3.41-2.78,1.3,0,2.59.67,3.17,2.21.53,1.39,1.58,6.72,1.58,9.46,0,8.59-3.5,12.53-16.23,12.53-10.27,0-15.03-1.2-15.03-6.91,0-.58.05-1.15.14-1.82,0,0-.29.1-1.1.1-4.42,0-7.49-2.98-7.49-8.02,0-6.58,4.56-12.19,10.08-12.19.67,0,1.3,0,1.92.1,0-1.06-.05-1.92-.1-2.93-2.69,0-5.28-.1-7.87-.34-1.54-.1-2.35-1.49-2.35-2.88s.77-2.69,2.35-2.69h.24c2.35.14,4.85.24,7.34.29-.1-1.15-.14-2.26-.24-3.22v-.24c0-1.39,1.68-2.21,3.31-2.21,1.54,0,3.07.72,3.12,2.26.1,1.06.14,2.16.19,3.26,2.11-.05,4.22-.24,6.34-.48h.34ZM425.54,32.32c0-1.82-.91-2.69-2.3-2.69-2.3,0-4.37,2.83-4.37,5.71,0,1.58.67,2.88,2.11,2.88,4.22,0,4.56-5.18,4.56-5.9ZM451.03,24.06c-2.26-2.26-5.76-4.9-8.02-6.38-1.01-.67-1.44-1.54-1.44-2.3,0-1.49,1.39-2.88,3.12-2.88.62,0,1.25.19,1.92.58,2.5,1.49,6.29,3.98,8.83,6.38.62.58.91,1.34.91,2.06,0,1.73-1.54,3.5-3.26,3.5-.67,0-1.39-.29-2.06-.96Z"/>
  </g>
</svg>