<?xml version="1.0" encoding="UTF-8"?>
<svg id="logo" xmlns="http://www.w3.org/2000/svg" viewBox="0 0 464.35 65.24">
  <defs>
    <style>
      .cls-1 {
        fill: #059669;
      }

      .cls-1, .cls-2, .cls-3 {
        stroke-width: 0px;
      }

      .cls-2 {
        fill: #f472b6;
      }

      .cls-3 {
        fill: #fff;
      }
    </style>
  </defs>
  <path class="cls-2" d="M464.35,20.52c0-3.28-1.39-6.44-3.74-8.61-3.56-3.35-8.46-6.41-10.4-7.57-.05-.03-.09-.06-.14-.08-2.05-1.17-4.2-1.76-6.39-1.76-2.6,0-5.01.81-6.98,2.17-2.17-2.83-5.74-4.62-9.87-4.62-4.54,0-8.44,2.13-10.57,5.38h-.09c-2.58,0-4.93.85-6.81,2.3-2.21-2.95-5.72-4.84-9.74-4.84h-.38c-.27,0-.54.01-.81.04-3.37.31-9.81.44-14.69.44-4.41,0-8.55-.13-11.08-.35-.26-.02-.52-.03-.78-.03h-.34c-5.42,0-9.87,3.5-11.3,8.41-1.79-.96-3.86-1.5-6.08-1.5-.49,0-3.19.19-6.74.61-.77-6.06-5.92-10.4-12.47-10.4-7.15,0-12.74,5.13-12.74,11.69,0,.62.06,1.15.13,1.54,0,0,.35,2.98.46,3.88-2.29,1.29-4.25,2.77-5.9,4.43-4.15-5.49-11.35-8.91-20.05-8.91-5.06,0-9.71.65-13.8,1.51,0-.05,0-.09,0-.14,0-2.96-1.24-5.79-3.42-7.81-4.15-3.98-7.38-6.28-11.59-6.28-2.99,0-5.71,1.16-7.71,3.04-1.64.45-3.14,1.25-4.38,2.32-2.23-3.14-6.01-5.11-10.42-5.11-7.15,0-12.74,5.13-12.74,11.69,0,.62.06,1.15.13,1.54,0,0,.35,2.98.46,3.88-.59.34-1.16.69-1.71,1.05-1.39-8.91-9.47-17.29-22.18-17.29-7.02,0-13.24,2.8-17.48,7.43-4.1-4.72-9.81-7.43-16.6-7.43-8.92,0-15.98,4.65-19.96,12.44-.2-6.7-5.83-11.91-13.01-11.91-3.09,0-5.94.98-8.26,2.84-.07.05-.14.11-.2.17-.53.45-2.02,1.28-3.24,1.73-.06.02-.12.04-.18.07-1.95.76-3.6,1.98-4.86,3.48-1.71-4.28-6.1-7.18-11.53-7.18-6.31,0-11.22,3.88-12.18,9.3-2.89-1.23-6.23-1.91-9.9-1.91s-7.15.73-10.06,2.04c-1.3-.83-2.8-1.44-4.44-1.73-1.06-.18-2.14-.27-3.21-.27-2.03,0-4.01.33-5.86.94-1.36-.45-2.84-.7-4.42-.7-1.85,0-3.58.35-5.13.98-1.22-5.08-5.97-8.66-12.01-8.66-6.56,0-11.62,4.2-12.29,9.96-3.1-1.65-6.67-2.57-10.56-2.57-2.33,0-4.54.35-6.63,1.04-1.39-.49-2.91-.76-4.51-.76C5.97,10.42.67,15.3.67,21.77.67,31.84.67,44.37.03,51.66c-.02.26-.03.52-.03.78v.38c0,7.07,5.66,12.41,13.18,12.41,5.45,0,9.94-2.72,12.04-6.84,5.15-.23,9.68-2.09,13.24-5.14,2.79,3.02,6.89,4.87,11.63,4.87,2.65,0,5.27-.51,7.8-1.53,1.97.95,4.26,1.48,6.74,1.48,5.08,0,9.33-2.25,11.67-5.75,3.81,3.85,9.39,6.09,16.12,6.09s11.3-1.66,14.47-3.97c2.71,2.31,6.31,3.68,10.4,3.68,3.01,0,5.97-.66,8.81-1.96,1.9-.86,3.5-2.21,4.69-3.89,2.41,3.56,6.81,5.8,12.18,5.8,7.05,0,12.43-3.86,13.82-9.51,4.13,6.36,10.63,10.08,18.63,10.08,5.68,0,10.61-1.88,14.48-5.26,2.48,2.65,5.91,4.25,9.81,4.25h20.93c3.14,0,5.91-1.26,7.99-3.37,1.18.92,2.48,1.74,3.91,2.45,5.29,2.63,12.23,3.85,21.84,3.85,3.94,0,8.05-.17,12.27-.52,4.64-.41,8.4-3.41,10.27-7.74,2.03,4.67,6.36,7.83,11.49,7.83h.29c.22,0,.44,0,.67-.02,12.77-.95,20.46-4.89,25.02-9.74,1.92,2.54,4.51,4.65,7.72,6.23,5.32,2.61,12.27,3.83,21.84,3.83,3.93,0,7.98-.17,12.03-.51,3.98-.3,7.29-2.53,9.31-5.89,4.23,3.07,10.76,5.3,20.84,5.3,5.71,0,12.56-.65,17.86-1.7,3.87-.76,6.95-3.16,8.73-6.53,1.44,3.56,4.23,6.33,8.12,7.92,3.44,1.41,7.72,1.99,14.78,1.99,16.74,0,25.23-7.24,25.23-21.53,0-2.48-.56-6.25-1.21-9.19,2.85-2.31,4.71-5.87,4.71-9.77Z"/>
  <g>
    <path class="cls-3" d="M154.07,44.52c-1.37-12.21-1.59-18.07-1.59-27.36v-3.26c0-5.2-4.41-9.26-10.03-9.26-2.4,0-4.61.75-6.39,2.18-.05.04-.09.07-.13.11-.85.72-2.67,1.71-4.15,2.26-.04.01-.08.03-.12.04-3.02,1.18-5.05,3.68-5.58,6.69-.77-.62-1.64-1.13-2.6-1.46v-.47c0-4.71-4-8.26-9.31-8.26s-9.36,3.55-9.36,8.26v1.38c-.41.27-.78.59-1.13.93-3.03-2.04-6.98-3.18-11.59-3.18-4,0-7.55.93-10.39,2.59-1.22-1.17-2.79-1.99-4.61-2.31-.9-.15-1.81-.23-2.72-.23-2.08,0-4.09.4-5.91,1.15-1.29-.58-2.77-.91-4.36-.91-2.35,0-4.44.71-6.04,1.92-.56-.35-1.15-.66-1.78-.88v-.47c0-4.71-4-8.26-9.31-8.26s-9.36,3.55-9.36,8.26v1.38c-.66.44-1.24.99-1.75,1.6-3.18-2.45-7.17-3.85-11.73-3.85-2.36,0-4.56.41-6.65,1.25-1.31-.62-2.84-.97-4.49-.97-5.31,0-9.31,3.59-9.31,8.35,0,10.13,0,22.73-.65,30.15-.02.17-.02.35-.02.52v.38c0,5.36,4.38,9.41,10.18,9.41,4.94,0,8.86-2.81,9.99-6.84.32.01.63.02.95.02,6.14,0,11.27-2.52,14.73-6.76,1.96,3.94,6.09,6.47,11.24,6.47,2.58,0,5.14-.57,7.53-1.67.13-.06.25-.14.38-.21,1.8,1.16,4.07,1.83,6.64,1.83,6.15,0,10.61-3.86,10.61-9.17,0-.1,0-.25,0-.42,2.68,6.2,8.84,9.93,17.19,9.93,7.52,0,11.98-2.27,14.63-5.11,2.2,2.98,5.85,4.82,10.24,4.82,2.58,0,5.14-.57,7.53-1.67,3.35-1.49,5.43-5.04,5.43-9.27,0-5.17-2.79-9.27-6.77-10.39v-2.5c2.92-1,5.08-3.51,5.68-6.66,1.19,1.04,2.65,1.79,4.26,2.1-.22,4.3-.67,9.1-1.55,17.87,0,.03,0,.07,0,.1-.03.21-.07.56-.07.97,0,5.45,4.7,9.41,11.18,9.41s11.18-3.98,11.18-9.46c0-.41-.04-.75-.08-1.02,0-.03,0-.05,0-.08Z"/>
    <path class="cls-3" d="M461.35,20.52c0-2.45-1.04-4.81-2.8-6.43-3.34-3.15-8.02-6.07-9.88-7.17-.03-.02-.06-.04-.09-.06-1.59-.91-3.24-1.37-4.9-1.37-2.51,0-4.79,1-6.44,2.6-.14,0-.28,0-.42,0h-.34c-.23,0-.45.01-.68.04-.17.02-.34.04-.51.06-1.33-3.06-4.56-5.14-8.47-5.14-4.12,0-7.54,2.25-8.8,5.46-.42-.02-.84-.05-1.25-.07-.12,0-.24-.01-.37-.01h-.24c-3.42,0-6.22,1.93-7.54,4.85-.87-4.27-4.52-7.39-9.02-7.39h-.38c-.18,0-.36,0-.54.02-3.46.31-10.01.46-14.96.46-4.5,0-8.73-.14-11.34-.36-.17-.02-.35-.02-.52-.02h-.34c-5.01,0-8.78,3.8-8.78,8.83,0,4.07,2.41,7.51,5.91,8.79-.27.2-.54.42-.79.65-3.14,2.87-6.46,8.22-7.04,13.09-1.57-1.37-3.55-2.18-5.76-2.18h-.29c-.17,0-.34,0-.5.02-6.37.53-11.42.89-15.39.89-2.36,0-3.97-.13-5.06-.29,2.3-1.38,7.95-3.62,21.17-4.53,4.93-.34,8.65-4.26,8.65-9.11,0-5.2-4.17-9.26-9.5-9.26-.33,0-4.49.28-9.51,1-.02-.25-.16-2.54-.16-2.57-.38-4.76-4.39-8.22-9.53-8.22-5.56,0-9.74,3.74-9.74,8.69,0,.44.05.81.1,1.11l.15,1.22c.19,1.63.38,3.22.55,4.79-4.28,2.07-7.44,4.72-9.52,7.97-2.79-6.78-10.08-11.15-19.64-11.15-5.67,0-11.34.82-18.08,2.62.8-1.23,1.29-2.68,1.29-4.25,0-2.13-.9-4.17-2.47-5.63-3.69-3.54-6.31-5.46-9.53-5.46-2.48,0-4.71,1.08-6.19,2.78-3.57.66-6.4,3.63-6.7,7.17,0,0-.09-1.45-.09-1.49-.38-4.76-4.39-8.22-9.53-8.22-5.56,0-9.74,3.74-9.74,8.69,0,.44.05.81.1,1.11l.15,1.22c.19,1.63.38,3.22.55,4.79-3.42,1.65-6.12,3.68-8.13,6.08.27-1.22.43-2.54.43-3.99,0-8.38-7.25-17.04-19.39-17.04-7.57,0-14.08,3.7-17.55,9.52-3.59-5.99-9.37-9.52-16.53-9.52-12.29,0-20.54,10.38-20.54,25.83s8.26,25.73,20.54,25.73c6.09,0,11.19-2.54,14.78-6.98,1.83,3.65,5.28,5.97,9.51,5.97h20.93c3.33,0,6.06-1.86,7.58-4.82,1.5,1.67,3.38,3.09,5.65,4.21,4.86,2.41,11.38,3.54,20.51,3.54,3.86,0,7.88-.17,12-.5,5.12-.45,8.83-5.17,8.83-11.21s-4.02-10.56-9.55-10.56h-.29c-.14,0-.27,0-.41.01-6.05.41-11.4.75-15.53.75-2.41,0-4.04-.12-5.14-.27,2.07-1.25,7.26-3.27,19.86-4.21,2.4-.17,4.48-1.14,6.01-2.66.73,4.37,4.5,7.71,9.03,7.71,1.04,0,2.11-.17,3.1-.5,5.5-1.83,9.14-2.96,14.38-2.96,1.09,0,1.91.14,2.47.3-1.12.91-4.39,2.44-12.45,3.07-4.65.31-8.02,4.37-8.02,9.68,0,6.21,4.19,10.9,9.74,10.9h.29c.15,0,.3,0,.44-.02,14.49-1.08,21.96-6.08,25.57-12.08,3.28,8.22,13.07,12.39,29.24,12.39,3.86,0,7.84-.17,11.75-.49,4.21-.29,7.45-3.53,8.44-8.06,3.35,4.1,9.81,7.45,22.01,7.45,5.52,0,12.15-.63,17.28-1.65,3.99-.78,6.89-3.91,7.75-8.11,1.13.89,2.42,1.6,3.85,2.07,2.39,9.36,14.48,9.36,20.61,9.36,9.54,0,22.23-1.92,22.23-18.53,0-3.03-.88-7.9-1.62-10.49,3.01-1.59,5.13-4.83,5.13-8.47Z"/>
  </g>
  <g>
    <path class="cls-1" d="M9,52.44c.67-7.68.67-20.21.67-30.67,0-1.58,1.63-2.35,3.31-2.35s3.26.77,3.26,2.26v.38c2.69-2.21,5.18-2.93,7.87-2.93,7.78,0,13.44,5.81,13.44,15.17s-5.66,15.12-13.44,15.12c-2.78,0-5.66-.82-7.34-2.59.14,1.82.38,3.89.67,5.57.05.19.05.38.05.58,0,2.16-2.16,3.26-4.32,3.26s-4.18-1.06-4.18-3.41v-.38ZM30.75,33c0-4.27-2.74-7.58-7.25-7.58s-7.06,3.74-7.06,7.58c0,4.42,2.69,7.58,7.06,7.58s7.25-2.69,7.25-7.58Z"/>
    <path class="cls-1" d="M43.61,25.75h-1.44c-1.58,0-2.4-1.44-2.4-2.88s.82-2.88,2.4-2.88h1.44v-6c0-1.54,1.68-2.26,3.36-2.26s3.31.72,3.31,2.26v6h3.17c1.82,0,2.69,1.44,2.69,2.88s-.86,2.88-2.69,2.88h-3.17v12.77c0,.86.43,1.34,1.39,1.34.43,0,.96-.1,1.63-.29.24-.05.48-.1.72-.1,1.87,0,3.02,2.4,3.02,4.7,0,1.58-.58,3.22-1.87,3.79-1.78.82-3.5,1.15-5.09,1.15-3.7,0-6.48-2.11-6.48-5.86v-17.52Z"/>
    <path class="cls-1" d="M59.78,45.24c.82-8.11,1.06-13.01,1.06-23.47,0-1.58,1.63-2.35,3.26-2.35s3.31.77,3.31,2.35v.72c1.34-2.06,4.08-3.31,6.96-3.31.58,0,1.15.05,1.73.14,1.63.29,2.3,1.58,2.3,2.88,0,1.58-1.06,3.26-2.74,3.26-.19,0-.34,0-.53-.05-.29-.05-.62-.1-.91-.1-2.74,0-5.95,2.21-6.29,6.14-.05.72-.1,1.49-.1,2.26,0,3.22.48,7.25,1.34,11.52.05.24.05.48.05.67,0,2.16-2.26,3.17-4.61,3.17s-4.85-1.06-4.85-3.46v-.38Z"/>
    <path class="cls-1" d="M93.29,40.73c3.26,0,4.7-1.2,4.7-2.4,0-.91-.77-1.78-2.16-2.26-2.83-.91-6.67-1.3-9.7-2.11-3.98-1.06-5.47-3.17-5.47-6.1,0-.38.05-.82.1-1.25.53-4.42,4.75-7.49,11.33-7.49s11.09,2.98,11.9,7.92v.29c0,1.25-1.58,1.97-3.12,1.97-1.39,0-2.74-.53-2.98-1.63-.38-1.58-2.35-2.83-5.9-2.83-3.26,0-4.42.77-4.61,2.02v.24c0,.77.62,1.3,1.78,1.58,2.26.58,6.34,1.2,8.88,1.82,4.66,1.15,6.82,4.18,6.82,9.17,0,.29-.05.62-.05.96-.29,5.42-3.89,8.78-12.39,8.78s-12.67-4.32-12.67-11.47c0-1.87,1.63-2.78,3.22-2.78,1.25,0,2.45.58,2.69,1.78.48,2.26,2.64,3.6,6.96,3.79h.67Z"/>
    <path class="cls-1" d="M110.81,25.75h-1.44c-1.58,0-2.4-1.44-2.4-2.88s.82-2.88,2.4-2.88h1.44v-6c0-1.54,1.68-2.26,3.36-2.26s3.31.72,3.31,2.26v6h3.17c1.82,0,2.69,1.44,2.69,2.88s-.86,2.88-2.69,2.88h-3.17v12.77c0,.86.43,1.34,1.39,1.34.43,0,.96-.1,1.63-.29.24-.05.48-.1.72-.1,1.87,0,3.02,2.4,3.02,4.7,0,1.58-.58,3.22-1.87,3.79-1.78.82-3.5,1.15-5.09,1.15-3.7,0-6.48-2.11-6.48-5.86v-17.52Z"/>
    <path class="cls-1" d="M146.47,17.16c0,9.46.24,15.65,1.63,28.03,0,.14.05.29.05.43,0,2.4-2.59,3.46-5.18,3.46s-5.18-1.06-5.18-3.41c0-.14.05-.34.05-.48,1.34-13.44,1.73-17.81,1.78-25.92-1.01.53-2.16,1.01-2.98,1.34-.53.19-1.01.29-1.44.29-2.02,0-3.26-1.73-3.26-3.41,0-1.1.58-2.16,1.92-2.69,1.82-.67,4.37-1.97,5.95-3.31.72-.58,1.63-.86,2.64-.86,1.97,0,4.03,1.2,4.03,3.26v3.26Z"/>
    <path class="cls-1" d="M160.87,29.93c0-11.62,5.33-19.83,14.54-19.83s14.55,8.21,14.55,19.83-5.28,19.73-14.55,19.73-14.54-8.11-14.54-19.73ZM183.1,28.87c0-6.48-1.92-12.29-7.68-12.29s-7.68,5.81-7.68,12.29,2.35,11.47,7.68,11.47,7.68-4.99,7.68-11.47Z"/>
    <path class="cls-1" d="M199.7,48.65c-3.31,0-4.94-3.07-4.94-6.34,0-1.82.53-3.7,1.49-5.14,5.47-8.16,19.87-9.7,19.87-16.03,0-2.4-2.26-4.8-6.53-4.8-3.98,0-6.77,2.45-7.54,6.1-.34,1.58-1.63,2.26-3.02,2.26-1.78,0-3.6-1.1-3.6-3.07,0-.19,0-.38.05-.58,1.06-5.9,6.1-10.94,14.02-10.94s13.39,5.57,13.39,11.04c0,11.52-14.5,11.81-19.54,17.95-.1.14-.14.29-.14.34,0,.14.1.19.34.19h17.09c1.92,0,2.88,2.26,2.88,4.51s-.96,4.51-2.88,4.51h-20.93Z"/>
    <path class="cls-1" d="M265.66,41.31c2.45,0,3.55,2.21,3.55,4.56,0,2.5-1.2,5.04-3.36,5.23-4.13.34-7.97.48-11.47.48-15.12,0-24.34-3.31-24.34-13.35,0-7.87,4.22-12.34,12.91-15.31-.24-3.6-.67-7.01-1.1-10.66,0-.14-.05-.24-.05-.34,0-1.73,1.87-2.69,3.74-2.69,1.73,0,3.41.86,3.55,2.69.19,3.12.38,6,.53,9.17,7.3-1.58,12.67-1.92,13.68-1.92,2.3,0,3.5,1.63,3.5,3.26,0,1.54-1.01,3.02-3.07,3.17-21.17,1.58-26.69,6.43-26.69,11.09,0,4.18,4.27,5.38,12.39,5.38,4.27,0,9.6-.34,15.94-.77h.29ZM267.67,19.46c-.67,0-1.3-.24-1.87-.86-1.34-1.39-2.74-2.74-3.84-3.6-.58-.43-.82-.91-.82-1.44,0-.96,1.01-1.92,2.21-1.92.62,0,1.82.19,6,4.51.43.43.58.86.58,1.3,0,1.1-1.06,2.02-2.26,2.02ZM271.99,16.01c-.53,0-1.1-.19-1.58-.72-1.1-1.15-2.54-2.4-3.6-3.17-.58-.43-.82-.91-.82-1.39,0-.91.96-1.73,2.06-1.73.62,0,1.68.24,5.42,3.84.43.38.58.86.58,1.25,0,1.01-.96,1.92-2.06,1.92Z"/>
    <path class="cls-1" d="M288.41,51.15c-2.5,0-3.74-2.54-3.74-4.9,0-1.87.82-3.6,2.45-3.7,13.54-1.06,18.53-4.8,18.53-9.7,0-3.5-3.84-5.66-8.98-5.66-6.29,0-10.8,1.44-16.27,3.26-.43.14-.86.19-1.2.19-1.97,0-3.17-1.68-3.17-3.26,0-1.1.58-2.21,1.92-2.59,5.95-1.73,12.19-3.07,18.91-3.07,8.59,0,14.88,4.46,14.88,11.52,0,10.13-6.24,16.66-23.04,17.91h-.29Z"/>
    <path class="cls-1" d="M355.08,41.16c2.26,0,3.36,2.4,3.36,4.8s-1.1,4.85-3.17,4.99c-4.03.34-7.82.48-11.33.48-15.03,0-24.48-3.31-24.48-13.35,0-7.87,4.22-12.34,12.91-15.31-.24-3.6-.67-7.01-1.1-10.66,0-.14-.05-.24-.05-.34,0-1.73,1.87-2.69,3.74-2.69,1.73,0,3.41.86,3.55,2.69.19,3.12.38,6,.53,9.17,7.15-1.54,15.07-2.06,15.12-2.06,2.3,0,3.5,1.63,3.5,3.26,0,1.49-1.01,2.98-3.07,3.12-21.55,1.49-28.13,6.62-28.13,11.28,0,4.18,4.32,5.52,12.43,5.52,4.27,0,9.6-.38,15.89-.91h.29Z"/>
    <path class="cls-1" d="M386.14,50.33c-13.68,0-19.39-4.22-19.39-11.52,0-2.98,2.45-7.63,5.18-10.13.62-.58,1.39-.82,2.11-.82,1.73,0,3.36,1.39,3.36,2.74,0,.48-.14.91-.58,1.34-1.3,1.3-2.26,3.02-2.26,4.61,0,2.4,1.82,3.84,11.57,3.84,4.51,0,10.71-.62,15.22-1.54.19-.05.38-.05.58-.05,2.21,0,3.5,2.59,3.5,5.14,0,2.21-.96,4.42-3.17,4.85-4.61.91-10.9,1.54-16.13,1.54ZM399.63,11.88c2.06,0,3.22,1.68,3.22,3.36,0,1.15-.53,2.26-1.73,2.74-4.27,1.73-8.64,3.7-12.24,5.81-.72.43-1.49.62-2.16.62-1.92,0-3.46-1.54-3.46-2.93,0-.86.34-1.49,4.51-3.36-1.44.24-3.17.29-3.89.29-3.12,0-8.78,0-12.48-.29-1.68-.14-2.64-1.78-2.64-3.31,0-1.44.86-2.83,2.78-2.83h.34c3.31.29,8.16.38,11.86.38,5.18,0,11.81-.14,15.51-.48h.38Z"/>
    <path class="cls-1" d="M436.83,14.09c1.78,0,2.74,1.44,2.74,2.83,0,1.3-.82,2.59-2.59,2.78-2.3.19-4.56.38-6.77.53,0,2.3-.1,4.56-.24,6.91.34.96.58,2.16.58,3.5,0,3.74-.96,6.1-2.16,8.83-.19.43-.29.82-.29,1.1,0,1.25,1.78,1.54,7.54,1.54,7.44,0,9.02-1.06,9.02-5.14,0-1.87-.43-4.37-.82-5.57-.1-.29-.14-.53-.14-.82,0-1.63,1.73-2.78,3.41-2.78,1.3,0,2.59.67,3.17,2.21.53,1.39,1.58,6.72,1.58,9.46,0,8.59-3.5,12.53-16.23,12.53-10.27,0-15.03-1.2-15.03-6.91,0-.58.05-1.15.14-1.82,0,0-.29.1-1.1.1-4.42,0-7.49-2.98-7.49-8.02,0-6.58,4.56-12.19,10.08-12.19.67,0,1.3,0,1.92.1,0-1.06-.05-1.92-.1-2.93-2.69,0-5.28-.1-7.87-.34-1.54-.1-2.35-1.49-2.35-2.88s.77-2.69,2.35-2.69h.24c2.35.14,4.85.24,7.34.29-.1-1.15-.14-2.26-.24-3.22v-.24c0-1.39,1.68-2.21,3.31-2.21,1.54,0,3.07.72,3.12,2.26.1,1.06.14,2.16.19,3.26,2.11-.05,4.22-.24,6.34-.48h.34ZM424.54,31.32c0-1.82-.91-2.69-2.3-2.69-2.3,0-4.37,2.83-4.37,5.71,0,1.58.67,2.88,2.11,2.88,4.22,0,4.56-5.18,4.56-5.9ZM450.03,23.06c-2.26-2.26-5.76-4.9-8.02-6.38-1.01-.67-1.44-1.54-1.44-2.3,0-1.49,1.39-2.88,3.12-2.88.62,0,1.25.19,1.92.58,2.5,1.49,6.29,3.98,8.83,6.38.62.58.91,1.34.91,2.06,0,1.73-1.54,3.5-3.26,3.5-.67,0-1.39-.29-2.06-.96Z"/>
  </g>
</svg>