<?xml version="1.0" encoding="UTF-8"?>
<svg id="logo" xmlns="http://www.w3.org/2000/svg" viewBox="0 0 466.35 67.24">
  <defs>
    <style>
      .cls-1 {
        fill: #059669;
      }

      .cls-1, .cls-2, .cls-3 {
        stroke-width: 0px;
      }

      .cls-2 {
        fill: #f472b6;
      }

      .cls-3 {
        fill: #fff;
      }
    </style>
  </defs>
  <path class="cls-2" d="M466.35,21.52c0-3.54-1.49-6.94-4.08-9.36-3.63-3.41-8.58-6.5-10.55-7.67-.05-.03-.1-.06-.16-.09-2.2-1.26-4.52-1.9-6.88-1.9s-4.79.68-6.77,1.85c-2.38-2.66-5.97-4.3-10.08-4.3-4.69,0-8.74,2.12-11.1,5.38-2.29.08-4.39.78-6.18,1.93-2.4-2.76-5.93-4.48-9.93-4.48h-.38c-.3,0-.6.01-.91.04-2.89.26-8.76.44-14.6.44-4.39,0-8.49-.13-10.99-.35-.29-.02-.58-.04-.87-.04h-.34c-5.47,0-10.02,3.28-11.88,8.03-1.67-.71-3.53-1.11-5.49-1.11-.48,0-2.78.15-5.91.5-1.23-6.05-6.58-10.3-13.3-10.3-7.71,0-13.74,5.57-13.74,12.69,0,.56.04,1.11.14,1.67,0,0,.3,2.52.38,3.21-1.77,1.04-3.34,2.21-4.73,3.48-4.41-5.21-11.58-8.41-20.15-8.41-4.67,0-8.99.55-12.85,1.3-.26-2.84-1.56-5.5-3.67-7.47-3.61-3.46-7.27-6.55-12.27-6.55-3.17,0-6.05,1.19-8.21,3.14-1.35.39-2.6,1.01-3.7,1.8-2.46-2.91-6.24-4.7-10.6-4.7-7.71,0-13.74,5.57-13.74,12.69,0,.56.04,1.11.14,1.67,0,0,.21,1.73.32,2.71-2.25-8.59-10.41-16.21-22.76-16.21-6.9,0-13.05,2.6-17.44,6.95-4.22-4.43-9.92-6.95-16.64-6.95-8.32,0-15.09,3.85-19.4,10.43-1.54-5.76-6.94-9.91-13.58-9.91-3.32,0-6.39,1.06-8.89,3.06-.07.05-.16.13-.22.18-.4.33-1.77,1.12-2.94,1.55-.07.02-.13.05-.2.07-1.61.63-3.03,1.54-4.22,2.66-2.18-3.89-6.54-6.43-11.8-6.43-6.35,0-11.39,3.67-12.89,8.94-2.75-1-5.84-1.55-9.19-1.55-3.69,0-7.06.67-9.99,1.9-1.3-.75-2.76-1.29-4.35-1.57-1.12-.19-2.25-.28-3.38-.28-2.03,0-4.02.31-5.89.9-1.37-.43-2.84-.66-4.38-.66s-3.07.26-4.46.71c-1.68-4.97-6.57-8.39-12.67-8.39-6.56,0-11.73,3.92-13.03,9.47-2.94-1.34-6.25-2.08-9.81-2.08-2.33,0-4.53.33-6.63.99-1.4-.45-2.92-.7-4.51-.7C6.4,10.42.67,15.73.67,22.77c0,10.05,0,22.56-.63,29.8-.03.29-.04.58-.04.87v.38c0,7.64,6.09,13.41,14.18,13.41,5.51,0,10.2-2.74,12.6-6.87,4.83-.31,9.13-2,12.61-4.72,2.94,2.8,7.04,4.49,11.7,4.49,2.64,0,5.24-.49,7.77-1.45,2.01.89,4.3,1.4,6.77,1.4,4.96,0,9.18-2.02,11.79-5.23,3.95,3.53,9.45,5.56,16,5.56,6.19,0,10.88-1.46,14.34-3.76,2.82,2.19,6.45,3.47,10.53,3.47,3.15,0,6.25-.69,9.22-2.05,1.67-.76,3.12-1.86,4.3-3.21,2.72,3.2,7.07,5.21,12.16,5.21,6.58,0,11.93-3.35,14.11-8.33,4.32,5.64,10.67,8.91,18.33,8.91,5.6,0,10.5-1.75,14.42-4.89,2.6,2.43,6.01,3.88,9.86,3.88h20.93c3.12,0,5.9-1.13,8.08-3.06,1.04.75,2.16,1.43,3.38,2.03,5.43,2.7,12.51,3.95,22.29,3.95,3.97,0,8.1-.17,12.36-.52,4.35-.39,7.97-2.87,10.18-6.55,2.44,4.03,6.63,6.64,11.5,6.64h.29c.25,0,.49,0,.74-.03,12.36-.92,20.09-4.58,24.88-9.21,1.92,2.25,4.38,4.13,7.34,5.59,5.47,2.68,12.55,3.93,22.28,3.93,3.96,0,8.03-.17,12.11-.51,3.94-.3,7.28-2.34,9.5-5.45,4.39,2.86,10.91,4.86,20.58,4.86,5.77,0,12.69-.66,18.05-1.72,3.53-.69,6.44-2.65,8.42-5.42,1.67,2.98,4.34,5.32,7.86,6.76,3.57,1.46,7.96,2.06,15.16,2.06,17.4,0,26.23-7.58,26.23-22.53,0-2.42-.49-5.92-1.1-8.82,2.8-2.5,4.61-6.15,4.61-10.14Z"/>
  <path class="cls-3" d="M464.35,21.52c0-3-1.27-5.9-3.42-7.88-3.48-3.29-8.31-6.29-10.23-7.44-.04-.02-.08-.05-.13-.07-1.89-1.08-3.88-1.63-5.89-1.63-2.74,0-5.26.98-7.2,2.59h-.02c-1.9-3.06-5.45-5.04-9.63-5.04-4.4,0-8.14,2.16-10.01,5.39-.13,0-.27-.01-.4-.01h-.24c-2.74,0-5.18,1.05-7.02,2.78-1.96-3.22-5.46-5.33-9.54-5.33h-.38c-.24,0-.48.01-.72.03-3.4.31-9.87.45-14.78.45-4.44,0-8.61-.13-11.16-.35-.23-.02-.46-.03-.69-.03h-.34c-5.43,0-9.78,3.83-10.63,9.01-1.88-1.32-4.2-2.1-6.75-2.1-.31,0-3.48.2-7.64.73,0,0-.03-.42-.03-.46-.46-5.83-5.31-10.06-11.53-10.06-6.59,0-11.74,4.69-11.74,10.69,0,.56.06,1.05.12,1.4l.14,1.17c.14,1.16.27,2.29.4,3.41-2.86,1.54-5.22,3.38-7.09,5.49-3.82-5.83-11.05-9.52-19.93-9.52-5.52,0-10.55.79-14.9,1.77.07-.46.1-.93.1-1.4,0-2.68-1.13-5.25-3.1-7.08-4.06-3.9-7.01-6.01-10.9-6.01-2.82,0-5.37,1.13-7.2,2.94-1.99.49-3.75,1.55-5.08,2.99-1.91-3.45-5.71-5.69-10.23-5.69-6.59,0-11.74,4.69-11.74,10.69,0,.56.06,1.05.12,1.4l.14,1.17c.14,1.16.27,2.29.4,3.41-1.31.71-2.51,1.48-3.62,2.31-.51-9.06-8.4-18.11-21.34-18.11-7.16,0-13.45,3.05-17.5,8-3.96-5.07-9.69-8-16.58-8-10.14,0-17.77,6.32-20.94,16.53,0-.48,0-.97,0-1.48v-3.26c0-6.32-5.29-11.26-12.03-11.26-2.86,0-5.5.91-7.64,2.62-.06.05-.12.1-.18.15-.59.5-2.19,1.41-3.54,1.91-.05.02-.1.04-.16.06-2.48.97-4.41,2.67-5.61,4.79-.9-4.91-5.39-8.42-11.14-8.42-6.31,0-11.09,4.18-11.34,9.8-3.04-1.55-6.68-2.41-10.74-2.41-3.81,0-7.25.78-10.15,2.18-1.29-.93-2.82-1.58-4.52-1.88-1.01-.17-2.03-.25-3.05-.25-2.04,0-4.03.35-5.87,1-1.34-.49-2.83-.76-4.4-.76-2.2,0-4.2.53-5.89,1.45-.58-5.28-5.21-9.13-11.24-9.13-6.48,0-11.36,4.41-11.36,10.26v.38s-.02.02-.03.02c-3.26-2.09-7.15-3.26-11.46-3.26-2.33,0-4.52.36-6.6,1.09-1.37-.52-2.91-.81-4.54-.81-6.45,0-11.31,4.45-11.31,10.35,0,10.09,0,22.64-.64,29.98-.02.23-.03.46-.03.7v.38c0,6.5,5.23,11.41,12.18,11.41,5.28,0,9.58-2.74,11.4-6.82,5.5-.1,10.3-2.14,13.93-5.55,2.58,3.26,6.68,5.26,11.59,5.26,2.7,0,5.36-.57,7.85-1.63,1.93,1.01,4.2,1.59,6.69,1.59,5.25,0,9.55-2.57,11.49-6.44,3.63,4.27,9.32,6.77,16.3,6.77s11.41-1.8,14.44-4.24c2.57,2.48,6.21,3.96,10.42,3.96,2.87,0,5.71-.63,8.34-1.84,2.26-1,4.04-2.75,5.18-4.97,1.94,4.09,6.46,6.76,12.16,6.76,7.64,0,13.18-4.82,13.18-11.46,0-.09,0-.17-.01-.25,3.78,7.68,10.61,12.28,19.27,12.28,5.79,0,10.76-2.06,14.55-5.72,2.34,2.92,5.77,4.71,9.73,4.71h20.93c3.17,0,5.94-1.41,7.9-3.75,1.3,1.12,2.79,2.1,4.45,2.93,5.15,2.55,11.95,3.74,21.4,3.74,3.91,0,7.99-.17,12.18-.51,5.25-.47,9.27-4.56,10.35-10.14,1.09,5.91,5.75,10.22,11.5,10.22h.29c.2,0,.4,0,.59-.02,13.16-.98,20.88-5.07,25.25-10.28,1.87,2.84,4.56,5.17,8.01,6.87,5.18,2.54,11.98,3.73,21.4,3.73,3.9,0,7.92-.17,11.96-.5,3.98-.3,7.24-2.73,9.03-6.32,4.05,3.31,10.63,5.72,21.2,5.72,5.65,0,12.42-.65,17.67-1.69,3.92-.77,6.96-3.37,8.5-7,.34.17.68.34,1.04.49,3.25,9.88,16.28,9.88,22.28,9.88s24.23,0,24.23-20.53c0-2.61-.63-6.65-1.32-9.59,2.9-2.11,4.83-5.56,4.83-9.37Z"/>
  <path class="cls-1" d="M10,53.44c.67-7.68.67-20.21.67-30.67,0-1.58,1.63-2.35,3.31-2.35s3.26.77,3.26,2.26v.38c2.69-2.21,5.18-2.93,7.87-2.93,7.78,0,13.44,5.81,13.44,15.17s-5.66,15.12-13.44,15.12c-2.78,0-5.66-.82-7.34-2.59.14,1.82.38,3.89.67,5.57.05.19.05.38.05.58,0,2.16-2.16,3.26-4.32,3.26s-4.18-1.06-4.18-3.41v-.38ZM31.75,34c0-4.27-2.74-7.58-7.25-7.58s-7.06,3.74-7.06,7.58c0,4.42,2.69,7.58,7.06,7.58s7.25-2.69,7.25-7.58Z"/>
  <path class="cls-1" d="M44.61,26.75h-1.44c-1.58,0-2.4-1.44-2.4-2.88s.82-2.88,2.4-2.88h1.44v-6c0-1.54,1.68-2.26,3.36-2.26s3.31.72,3.31,2.26v6h3.17c1.82,0,2.69,1.44,2.69,2.88s-.86,2.88-2.69,2.88h-3.17v12.77c0,.86.43,1.34,1.39,1.34.43,0,.96-.1,1.63-.29.24-.05.48-.1.72-.1,1.87,0,3.02,2.4,3.02,4.7,0,1.58-.58,3.22-1.87,3.79-1.78.82-3.5,1.15-5.09,1.15-3.7,0-6.48-2.11-6.48-5.86v-17.52Z"/>
  <path class="cls-1" d="M60.78,46.24c.82-8.11,1.06-13.01,1.06-23.47,0-1.58,1.63-2.35,3.26-2.35s3.31.77,3.31,2.35v.72c1.34-2.06,4.08-3.31,6.96-3.31.58,0,1.15.05,1.73.14,1.63.29,2.3,1.58,2.3,2.88,0,1.58-1.06,3.26-2.74,3.26-.19,0-.34,0-.53-.05-.29-.05-.62-.1-.91-.1-2.74,0-5.95,2.21-6.29,6.14-.05.72-.1,1.49-.1,2.26,0,3.22.48,7.25,1.34,11.52.05.24.05.48.05.67,0,2.16-2.26,3.17-4.61,3.17s-4.85-1.06-4.85-3.46v-.38Z"/>
  <path class="cls-1" d="M94.29,41.73c3.26,0,4.7-1.2,4.7-2.4,0-.91-.77-1.78-2.16-2.26-2.83-.91-6.67-1.3-9.7-2.11-3.98-1.06-5.47-3.17-5.47-6.1,0-.38.05-.82.1-1.25.53-4.42,4.75-7.49,11.33-7.49s11.09,2.98,11.9,7.92v.29c0,1.25-1.58,1.97-3.12,1.97-1.39,0-2.74-.53-2.98-1.63-.38-1.58-2.35-2.83-5.9-2.83-3.26,0-4.42.77-4.61,2.02v.24c0,.77.62,1.3,1.78,1.58,2.26.58,6.34,1.2,8.88,1.82,4.66,1.15,6.82,4.18,6.82,9.17,0,.29-.05.62-.05.96-.29,5.42-3.89,8.78-12.39,8.78s-12.67-4.32-12.67-11.47c0-1.87,1.63-2.78,3.22-2.78,1.25,0,2.45.58,2.69,1.78.48,2.26,2.64,3.6,6.96,3.79h.67Z"/>
  <path class="cls-1" d="M111.81,26.75h-1.44c-1.58,0-2.4-1.44-2.4-2.88s.82-2.88,2.4-2.88h1.44v-6c0-1.54,1.68-2.26,3.36-2.26s3.31.72,3.31,2.26v6h3.17c1.82,0,2.69,1.44,2.69,2.88s-.86,2.88-2.69,2.88h-3.17v12.77c0,.86.43,1.34,1.39,1.34.43,0,.96-.1,1.63-.29.24-.05.48-.1.72-.1,1.87,0,3.02,2.4,3.02,4.7,0,1.58-.58,3.22-1.87,3.79-1.78.82-3.5,1.15-5.09,1.15-3.7,0-6.48-2.11-6.48-5.86v-17.52Z"/>
  <path class="cls-1" d="M147.47,18.16c0,9.46.24,15.65,1.63,28.03,0,.14.05.29.05.43,0,2.4-2.59,3.46-5.18,3.46s-5.18-1.06-5.18-3.41c0-.14.05-.34.05-.48,1.34-13.44,1.73-17.81,1.78-25.92-1.01.53-2.16,1.01-2.98,1.34-.53.19-1.01.29-1.44.29-2.02,0-3.26-1.73-3.26-3.41,0-1.1.58-2.16,1.92-2.69,1.82-.67,4.37-1.97,5.95-3.31.72-.58,1.63-.86,2.64-.86,1.97,0,4.03,1.2,4.03,3.26v3.26Z"/>
  <path class="cls-1" d="M161.87,30.93c0-11.62,5.33-19.83,14.54-19.83s14.55,8.21,14.55,19.83-5.28,19.73-14.55,19.73-14.54-8.11-14.54-19.73ZM184.1,29.87c0-6.48-1.92-12.29-7.68-12.29s-7.68,5.81-7.68,12.29,2.35,11.47,7.68,11.47,7.68-4.99,7.68-11.47Z"/>
  <path class="cls-1" d="M200.7,49.65c-3.31,0-4.94-3.07-4.94-6.34,0-1.82.53-3.7,1.49-5.14,5.47-8.16,19.87-9.7,19.87-16.03,0-2.4-2.26-4.8-6.53-4.8-3.98,0-6.77,2.45-7.54,6.1-.34,1.58-1.63,2.26-3.02,2.26-1.78,0-3.6-1.1-3.6-3.07,0-.19,0-.38.05-.58,1.06-5.9,6.1-10.94,14.02-10.94s13.39,5.57,13.39,11.04c0,11.52-14.5,11.81-19.54,17.95-.1.14-.14.29-.14.34,0,.14.1.19.34.19h17.09c1.92,0,2.88,2.26,2.88,4.51s-.96,4.51-2.88,4.51h-20.93Z"/>
  <path class="cls-1" d="M266.66,42.31c2.45,0,3.55,2.21,3.55,4.56,0,2.5-1.2,5.04-3.36,5.23-4.13.34-7.97.48-11.47.48-15.12,0-24.34-3.31-24.34-13.35,0-7.87,4.22-12.34,12.91-15.31-.24-3.6-.67-7.01-1.1-10.66,0-.14-.05-.24-.05-.34,0-1.73,1.87-2.69,3.74-2.69,1.73,0,3.41.86,3.55,2.69.19,3.12.38,6,.53,9.17,7.3-1.58,12.67-1.92,13.68-1.92,2.3,0,3.5,1.63,3.5,3.26,0,1.54-1.01,3.02-3.07,3.17-21.17,1.58-26.69,6.43-26.69,11.09,0,4.18,4.27,5.38,12.39,5.38,4.27,0,9.6-.34,15.94-.77h.29ZM268.67,20.46c-.67,0-1.3-.24-1.87-.86-1.34-1.39-2.74-2.74-3.84-3.6-.58-.43-.82-.91-.82-1.44,0-.96,1.01-1.92,2.21-1.92.62,0,1.82.19,6,4.51.43.43.58.86.58,1.3,0,1.1-1.06,2.02-2.26,2.02ZM272.99,17.01c-.53,0-1.1-.19-1.58-.72-1.1-1.15-2.54-2.4-3.6-3.17-.58-.43-.82-.91-.82-1.39,0-.91.96-1.73,2.06-1.73.62,0,1.68.24,5.42,3.84.43.38.58.86.58,1.25,0,1.01-.96,1.92-2.06,1.92Z"/>
  <path class="cls-1" d="M289.41,52.15c-2.5,0-3.74-2.54-3.74-4.9,0-1.87.82-3.6,2.45-3.7,13.54-1.06,18.53-4.8,18.53-9.7,0-3.5-3.84-5.66-8.98-5.66-6.29,0-10.8,1.44-16.27,3.26-.43.14-.86.19-1.2.19-1.97,0-3.17-1.68-3.17-3.26,0-1.1.58-2.21,1.92-2.59,5.95-1.73,12.19-3.07,18.91-3.07,8.59,0,14.88,4.46,14.88,11.52,0,10.13-6.24,16.66-23.04,17.91h-.29Z"/>
  <path class="cls-1" d="M356.08,42.16c2.26,0,3.36,2.4,3.36,4.8s-1.1,4.85-3.17,4.99c-4.03.34-7.82.48-11.33.48-15.03,0-24.48-3.31-24.48-13.35,0-7.87,4.22-12.34,12.91-15.31-.24-3.6-.67-7.01-1.1-10.66,0-.14-.05-.24-.05-.34,0-1.73,1.87-2.69,3.74-2.69,1.73,0,3.41.86,3.55,2.69.19,3.12.38,6,.53,9.17,7.15-1.54,15.07-2.06,15.12-2.06,2.3,0,3.5,1.63,3.5,3.26,0,1.49-1.01,2.98-3.07,3.12-21.55,1.49-28.13,6.62-28.13,11.28,0,4.18,4.32,5.52,12.43,5.52,4.27,0,9.6-.38,15.89-.91h.29Z"/>
  <path class="cls-1" d="M387.14,51.33c-13.68,0-19.39-4.22-19.39-11.52,0-2.98,2.45-7.63,5.18-10.13.62-.58,1.39-.82,2.11-.82,1.73,0,3.36,1.39,3.36,2.74,0,.48-.14.91-.58,1.34-1.3,1.3-2.26,3.02-2.26,4.61,0,2.4,1.82,3.84,11.57,3.84,4.51,0,10.71-.62,15.22-1.54.19-.05.38-.05.58-.05,2.21,0,3.5,2.59,3.5,5.14,0,2.21-.96,4.42-3.17,4.85-4.61.91-10.9,1.54-16.13,1.54ZM400.63,12.88c2.06,0,3.22,1.68,3.22,3.36,0,1.15-.53,2.26-1.73,2.74-4.27,1.73-8.64,3.7-12.24,5.81-.72.43-1.49.62-2.16.62-1.92,0-3.46-1.54-3.46-2.93,0-.86.34-1.49,4.51-3.36-1.44.24-3.17.29-3.89.29-3.12,0-8.78,0-12.48-.29-1.68-.14-2.64-1.78-2.64-3.31,0-1.44.86-2.83,2.78-2.83h.34c3.31.29,8.16.38,11.86.38,5.18,0,11.81-.14,15.51-.48h.38Z"/>
  <path class="cls-1" d="M437.83,15.09c1.78,0,2.74,1.44,2.74,2.83,0,1.3-.82,2.59-2.59,2.78-2.3.19-4.56.38-6.77.53,0,2.3-.1,4.56-.24,6.91.34.96.58,2.16.58,3.5,0,3.74-.96,6.1-2.16,8.83-.19.43-.29.82-.29,1.1,0,1.25,1.78,1.54,7.54,1.54,7.44,0,9.02-1.06,9.02-5.14,0-1.87-.43-4.37-.82-5.57-.1-.29-.14-.53-.14-.82,0-1.63,1.73-2.78,3.41-2.78,1.3,0,2.59.67,3.17,2.21.53,1.39,1.58,6.72,1.58,9.46,0,8.59-3.5,12.53-16.23,12.53-10.27,0-15.03-1.2-15.03-6.91,0-.58.05-1.15.14-1.82,0,0-.29.1-1.1.1-4.42,0-7.49-2.98-7.49-8.02,0-6.58,4.56-12.19,10.08-12.19.67,0,1.3,0,1.92.1,0-1.06-.05-1.92-.1-2.93-2.69,0-5.28-.1-7.87-.34-1.54-.1-2.35-1.49-2.35-2.88s.77-2.69,2.35-2.69h.24c2.35.14,4.85.24,7.34.29-.1-1.15-.14-2.26-.24-3.22v-.24c0-1.39,1.68-2.21,3.31-2.21,1.54,0,3.07.72,3.12,2.26.1,1.06.14,2.16.19,3.26,2.11-.05,4.22-.24,6.34-.48h.34ZM425.54,32.32c0-1.82-.91-2.69-2.3-2.69-2.3,0-4.37,2.83-4.37,5.71,0,1.58.67,2.88,2.11,2.88,4.22,0,4.56-5.18,4.56-5.9ZM451.03,24.06c-2.26-2.26-5.76-4.9-8.02-6.38-1.01-.67-1.44-1.54-1.44-2.3,0-1.49,1.39-2.88,3.12-2.88.62,0,1.25.19,1.92.58,2.5,1.49,6.29,3.98,8.83,6.38.62.58.91,1.34.91,2.06,0,1.73-1.54,3.5-3.26,3.5-.67,0-1.39-.29-2.06-.96Z"/>
</svg>